<svg width="87" height="35" viewBox="0 0 87 35" fill="none" xmlns="http://www.w3.org/2000/svg">
<path d="M31.5014 23.076C31.5494 23.676 31.7774 24.276 32.1854 24.876C32.5934 25.476 32.7974 25.92 32.7974 26.208V26.352C32.7974 26.808 32.5094 27.036 31.9334 27.036H24.7334C24.1574 27.036 23.8694 26.808 23.8694 26.352V26.208C23.8694 25.944 24.0974 25.512 24.5534 24.912C25.0094 24.312 25.2134 23.7 25.1654 23.076L24.8054 16.704C24.7094 14.904 24.4694 13.632 24.0854 12.888C23.7014 12.12 23.1134 11.736 22.3214 11.736C21.6014 11.736 21.0494 12.048 20.6654 12.672C20.2814 13.296 20.0894 14.124 20.0894 15.156C20.1614 15.66 20.1974 16.164 20.1974 16.668V23.076C20.1974 23.676 20.4134 24.276 20.8454 24.876C21.2774 25.476 21.4934 25.92 21.4934 26.208V26.352C21.4934 26.808 21.2054 27.036 20.6294 27.036H13.4654C12.8894 27.036 12.6014 26.808 12.6014 26.352V26.208C12.6014 25.92 12.8054 25.476 13.2134 24.876C13.6454 24.276 13.8614 23.676 13.8614 23.076V16.236C13.8614 13.236 13.0454 11.736 11.4134 11.736C10.6214 11.736 10.0214 12.048 9.61338 12.672C9.20538 13.296 9.00138 14.124 9.00138 15.156V23.076C9.00138 23.676 9.26538 24.276 9.79338 24.876C10.3214 25.476 10.5854 25.92 10.5854 26.208V26.352C10.5854 26.808 10.2974 27.036 9.72138 27.036H1.94538C1.36938 27.036 1.08138 26.808 1.08138 26.352V26.208C1.08138 25.92 1.34538 25.476 1.87338 24.876C2.40138 24.276 2.66538 23.676 2.66538 23.076V15.984C2.66538 15.504 2.49738 15.096 2.16138 14.76C1.84938 14.4 1.53738 14.088 1.22538 13.824C0.913378 13.56 0.757378 13.284 0.757378 12.996V12.888C0.757378 12.576 1.04538 12.276 1.62138 11.988L7.02138 9.504C7.45338 9.312 7.78938 9.312 8.02938 9.504C8.26938 9.696 8.38938 9.984 8.38938 10.368V11.664C9.49338 10.128 11.0894 9.36 13.1774 9.36C15.8414 9.36 17.8094 10.344 19.0814 12.312C19.5614 11.376 20.2694 10.656 21.2054 10.152C22.1414 9.624 23.2094 9.36 24.4094 9.36C26.1614 9.36 27.6494 9.948 28.8734 11.124C30.1214 12.3 30.8414 14.232 31.0334 16.92L31.5014 23.076Z" fill="black"/>
<path d="M38.9506 7.596C37.7266 7.596 36.7306 7.26 35.9626 6.588C35.1946 5.892 34.8106 5.028 34.8106 3.996C34.8106 2.964 35.1946 2.112 35.9626 1.44C36.7306 0.744 37.7266 0.396 38.9506 0.396C40.1506 0.396 41.1346 0.744 41.9026 1.44C42.6706 2.112 43.0546 2.964 43.0546 3.996C43.0546 5.028 42.6706 5.892 41.9026 6.588C41.1346 7.26 40.1506 7.596 38.9506 7.596ZM35.0986 27C34.5226 27 34.2346 26.772 34.2346 26.316V26.172C34.2346 25.884 34.4746 25.44 34.9546 24.84C35.4346 24.24 35.6746 23.64 35.6746 23.04V16.2C35.6746 15.576 35.4346 14.976 34.9546 14.4C34.4746 13.8 34.2346 13.392 34.2346 13.176V13.032C34.2346 12.744 34.5106 12.468 35.0626 12.204L40.4986 9.54C41.0026 9.324 41.3986 9.3 41.6866 9.468C41.9746 9.636 42.1186 9.912 42.1186 10.296V23.04C42.1186 23.64 42.3826 24.24 42.9106 24.84C43.4626 25.44 43.7386 25.884 43.7386 26.172V26.316C43.7386 26.772 43.4386 27 42.8386 27H35.0986Z" fill="black"/>
<path d="M64.8191 23.076C64.8671 23.676 65.0951 24.276 65.5031 24.876C65.9111 25.452 66.1151 25.896 66.1151 26.208V26.352C66.1151 26.808 65.8271 27.036 65.2511 27.036H58.0511C57.4751 27.036 57.1871 26.808 57.1871 26.352V26.208C57.1871 25.92 57.4151 25.476 57.8711 24.876C58.3271 24.276 58.5311 23.676 58.4831 23.076L58.1231 16.632C58.0271 14.856 57.7871 13.596 57.4031 12.852C57.0431 12.108 56.4551 11.736 55.6391 11.736C54.8711 11.736 54.2831 12.048 53.8751 12.672C53.4911 13.296 53.2991 14.148 53.2991 15.228V23.076C53.2991 23.676 53.5631 24.276 54.0911 24.876C54.6191 25.476 54.8831 25.92 54.8831 26.208V26.352C54.8831 26.808 54.5951 27.036 54.0191 27.036H46.2431C45.6671 27.036 45.3791 26.808 45.3791 26.352V26.208C45.3791 25.92 45.6431 25.476 46.1711 24.876C46.6991 24.276 46.9631 23.676 46.9631 23.076V15.984C46.9631 15.48 46.8071 15.06 46.4951 14.724C46.1831 14.364 45.8591 14.064 45.5231 13.824C45.2111 13.56 45.0551 13.284 45.0551 12.996V12.888C45.0551 12.576 45.3431 12.276 45.9191 11.988L50.9591 9.504C51.4151 9.312 51.7511 9.312 51.9671 9.504C52.2071 9.672 52.3271 9.96 52.3271 10.368V12.06C53.3351 10.26 55.0511 9.36 57.4751 9.36C59.2751 9.36 60.8231 9.948 62.1191 11.124C63.4151 12.3 64.1591 14.208 64.3511 16.848L64.8191 23.076Z" fill="black"/>
<path d="M85.2941 9.72C85.8461 9.72 86.1221 9.948 86.1221 10.404V10.548C86.1221 10.908 85.8461 11.4 85.2941 12.024C84.7661 12.648 84.3941 13.212 84.1781 13.716L77.3741 28.368C77.0381 29.136 76.7021 29.796 76.3661 30.348C76.0541 30.924 75.6101 31.584 75.0341 32.328C74.4821 33.096 73.8221 33.684 73.0541 34.092C72.2861 34.524 71.4581 34.74 70.5701 34.74C68.8901 34.74 67.5101 34.32 66.4301 33.48C65.3741 32.64 64.8461 31.668 64.8461 30.564C64.8461 29.796 65.0741 29.184 65.5301 28.728C65.9861 28.272 66.6101 28.044 67.4021 28.044C68.1941 28.044 68.8061 28.296 69.2381 28.8C69.6941 29.304 69.9701 29.844 70.0661 30.42C70.1861 31.02 70.3541 31.572 70.5701 32.076C70.7861 32.58 71.0741 32.832 71.4341 32.832C72.3701 32.832 73.4981 31.272 74.8181 28.152L67.5101 13.716C67.2461 13.212 66.8381 12.66 66.2861 12.06C65.7581 11.436 65.4941 10.932 65.4941 10.548V10.404C65.4941 9.948 65.7701 9.72 66.3221 9.72H74.0621C74.5901 9.72 74.8541 9.96 74.8541 10.44V10.584C74.8541 10.824 74.7461 11.1 74.5301 11.412C74.3141 11.724 74.1701 12.012 74.0981 12.276C74.0261 12.54 74.1101 13.044 74.3501 13.788L78.0221 22.428L81.3341 14.4C81.5981 13.512 81.5981 12.9 81.3341 12.564C81.0941 12.204 80.7461 11.844 80.2901 11.484C79.8581 11.124 79.6421 10.824 79.6421 10.584V10.44C79.6421 9.96 79.9181 9.72 80.4701 9.72H85.2941Z" fill="black"/>
</svg>
